<svg id="Group_18" data-name="Group 18" xmlns="http://www.w3.org/2000/svg" width="21.319" height="20.779" viewBox="0 0 21.319 20.779">
  <path id="Path_41" data-name="Path 41" d="M655,632.147h-3.672v-3.672a.665.665,0,1,0-1.331,0v3.672h-3.673a.665.665,0,0,0,0,1.331h3.673v3.672a.665.665,0,1,0,1.331,0v-3.672H655a.665.665,0,1,0,0-1.331Z" transform="translate(-640 -622.422)"/>
  <path id="Path_42" data-name="Path 42" d="M654,621.516a5.784,5.784,0,0,0-2.121-4.233,9.581,9.581,0,0,0-4.495-1.349l-.291-.035a28.118,28.118,0,0,0-9,.291,9.337,9.337,0,0,0-2.059.6,4.544,4.544,0,0,0-1.979,1.612,7.9,7.9,0,0,0-.993,3.823c-.095,1.325-.187,2.9-.15,4.526.014.608.033,1.315.08,2.019a11.607,11.607,0,0,0,1.054,4.538,5.012,5.012,0,0,0,4.019,2.628,37.826,37.826,0,0,0,5.31.508h.116a29.53,29.53,0,0,0,5.322-.544,6.468,6.468,0,0,0,3.834-1.749c1.085-1.195,1.288-2.949,1.4-4.645A40.763,40.763,0,0,0,654,621.516Zm-1.276,7.9c-.1,1.461-.263,2.961-1.061,3.84a5.31,5.31,0,0,1-3.086,1.334,29.237,29.237,0,0,1-5.194.522,36.662,36.662,0,0,1-5.124-.493,3.63,3.63,0,0,1-3.034-1.931,10.4,10.4,0,0,1-.9-4.008c-.046-.676-.064-1.366-.078-1.959-.036-1.571.054-3.106.147-4.4a6.83,6.83,0,0,1,.774-3.181,3.2,3.2,0,0,1,1.414-1.134,8.12,8.12,0,0,1,1.765-.51,27.4,27.4,0,0,1,5.16-.5,26.832,26.832,0,0,1,3.424.221l.3.036a8.435,8.435,0,0,1,3.9,1.122,4.562,4.562,0,0,1,1.558,3.311A39.588,39.588,0,0,1,652.725,629.417Z" transform="translate(-632.907 -615.666)"/>
</svg>
